<?xml version="1.0" standalone="no"?>
<!DOCTYPE svg PUBLIC "-//W3C//DTD SVG 20010904//EN"
 "http://www.w3.org/TR/2001/REC-SVG-20010904/DTD/svg10.dtd">
<svg version="1.0" xmlns="http://www.w3.org/2000/svg"
 width="512.000000pt" height="512.000000pt" viewBox="0 0 512.000000 512.000000"
 preserveAspectRatio="xMidYMid meet">

<g transform="translate(0.000000,512.000000) scale(0.100000,-0.100000)"
fill="#000" stroke="none">
<path d="M2890 5114 c-404 -30 -820 -192 -1140 -445 -149 -117 -344 -332 -448
-494 -323 -499 -413 -1077 -258 -1659 33 -125 94 -277 167 -414 35 -68 59
-126 59 -145 0 -28 -60 -92 -568 -602 -472 -472 -576 -582 -611 -641 -82 -140
-107 -265 -77 -383 20 -77 44 -119 109 -188 159 -170 361 -187 591 -52 59 35
169 139 641 611 510 508 574 568 602 568 19 0 77 -24 145 -59 290 -153 566
-227 883 -238 440 -15 823 91 1190 329 162 104 377 299 494 448 230 291 376
637 432 1025 19 127 16 443 -5 574 -62 393 -216 735 -464 1031 -321 385 -778
639 -1282 715 -104 16 -360 26 -460 19z m405 -559 c230 -36 463 -134 657 -276
105 -78 266 -241 342 -347 383 -538 373 -1282 -24 -1810 -300 -399 -793 -632
-1284 -609 -402 19 -748 170 -1026 447 -603 604 -599 1579 11 2177 353 346
826 495 1324 418z"/>
<path d="M2987 4279 c-463 -51 -866 -340 -1071 -769 -55 -114 -48 -205 22
-276 62 -62 169 -82 240 -44 62 33 78 51 137 159 71 131 128 205 215 280 267
230 614 289 953 163 94 -35 170 -25 234 31 88 77 98 222 20 305 -45 48 -194
105 -354 136 -106 20 -287 27 -396 15z"/>
</g>
</svg>
